<?xml version="1.0" standalone="no"?><!DOCTYPE svg PUBLIC "-//W3C//DTD SVG 1.1//EN" "http://www.w3.org/Graphics/SVG/1.1/DTD/svg11.dtd"><svg t="1635847633584" class="icon" viewBox="0 0 1024 1024" version="1.1" xmlns="http://www.w3.org/2000/svg" p-id="9368" xmlns:xlink="http://www.w3.org/1999/xlink" width="200" height="200"><defs><style type="text/css"></style></defs><path d="M733.52192 23.35744 290.47808 23.35744c-43.13088 0-78.1824 35.05152-78.1824 78.1824l0 820.92032c0 43.14112 35.05152 78.1824 78.1824 78.1824l443.04384 0c43.13088 0 78.1824-35.04128 78.1824-78.1824L811.70432 101.53984C811.70432 58.40896 776.6528 23.35744 733.52192 23.35744zM440.33024 94.76096c0-10.69056 8.6016-19.29216 19.29216-19.29216l104.7552 0c10.68032 0 19.29216 8.6016 19.29216 19.29216l0 0.52224c0 10.68032-8.61184 19.28192-19.29216 19.28192l-104.7552 0c-10.69056 0-19.29216-8.6016-19.29216-19.28192L440.33024 94.76096zM512 971.32544c-23.32672 0-42.35264-19.01568-42.35264-42.3424s19.02592-42.35264 42.35264-42.35264c23.31648 0 42.3424 19.02592 42.3424 42.35264S535.31648 971.32544 512 971.32544zM746.5472 844.27776c0 7.168-5.86752 13.02528-13.02528 13.02528L290.47808 857.30304c-7.168 0-13.02528-5.86752-13.02528-13.02528L277.4528 179.72224c0-7.15776 5.86752-13.02528 13.02528-13.02528l443.04384 0c7.15776 0 13.02528 5.86752 13.02528 13.02528L746.5472 844.27776z" p-id="9369" fill="#1faead"></path><path d="M362.14784 518.51264l65.15712 0c3.584 0 6.51264-2.9184 6.51264-6.51264l0-58.64448c0-7.18848-5.8368-13.02528-13.03552-13.02528l-52.1216 0c-7.18848 0-13.02528 5.8368-13.02528 13.02528L355.6352 512C355.62496 515.60448 358.5536 518.51264 362.14784 518.51264z" p-id="9370" fill="#1faead"></path><path d="M596.69504 518.51264l65.15712 0c3.584 0 6.51264-2.9184 6.51264-6.51264L668.3648 296.99072c0-7.18848-5.8368-13.02528-13.02528-13.02528l-52.1216 0c-7.18848 0-13.02528 5.84704-13.02528 13.02528L590.19264 512C590.1824 515.60448 593.1008 518.51264 596.69504 518.51264z" p-id="9371" fill="#1faead"></path><path d="M479.41632 518.51264l65.15712 0c3.584 0 6.51264-2.9184 6.51264-6.51264L551.08608 362.14784c0-7.18848-5.8368-13.03552-13.03552-13.03552l-52.1216 0c-7.18848 0-13.02528 5.84704-13.02528 13.03552L472.90368 512C472.90368 515.60448 475.83232 518.51264 479.41632 518.51264z" p-id="9372" fill="#1faead"></path><path d="M681.5232 766.09536l-339.0464 0c-7.12704 0-12.9024 5.77536-12.9024 12.9024l0 0.256c0 7.12704 5.77536 12.9024 12.9024 12.9024l339.0464 0c7.12704 0 12.9024-5.77536 12.9024-12.9024l0-0.256C694.4256 771.87072 688.65024 766.09536 681.5232 766.09536z" p-id="9373" fill="#1faead"></path><path d="M681.5232 609.73056l-339.0464 0c-7.12704 0-12.9024 5.77536-12.9024 12.9024l0 0.24576c0 7.12704 5.77536 12.9024 12.9024 12.9024l339.0464 0c7.12704 0 12.9024-5.77536 12.9024-12.9024l0-0.24576C694.4256 615.50592 688.65024 609.73056 681.5232 609.73056z" p-id="9374" fill="#1faead"></path><path d="M681.5232 687.91296l-339.0464 0c-7.12704 0-12.9024 5.77536-12.9024 12.9024l0 0.256c0 7.12704 5.77536 12.9024 12.9024 12.9024l339.0464 0c7.12704 0 12.9024-5.77536 12.9024-12.9024l0-0.256C694.4256 693.68832 688.65024 687.91296 681.5232 687.91296z" p-id="9375" fill="#1faead"></path></svg>